<?xml version="1.0" standalone="no"?>
<!DOCTYPE svg PUBLIC "-//W3C//DTD SVG 20010904//EN"
 "http://www.w3.org/TR/2001/REC-SVG-20010904/DTD/svg10.dtd">
<svg version="1.0" xmlns="http://www.w3.org/2000/svg"
 width="128.000000pt" height="128.000000pt" viewBox="0 0 128.000000 128.000000"
 preserveAspectRatio="xMidYMid meet">

<g transform="translate(0.000000,128.000000) scale(0.100000,-0.100000)"
fill="#000000" stroke="none">
<path d="M507 1255 c-181 -36 -349 -170 -433 -342 -31 -65 -73 -218 -62 -228
2 -3 78 -35 169 -72 l164 -68 45 14 c25 8 50 15 56 17 6 1 45 51 86 111 55 79
76 119 80 150 13 96 89 174 189 195 106 22 215 -34 263 -136 25 -52 24 -139
-1 -196 -32 -74 -122 -140 -190 -140 -20 0 -64 -25 -139 -80 -104 -74 -112
-82 -118 -119 -12 -76 -92 -141 -171 -141 -68 0 -140 49 -164 111 -8 24 -75
57 -228 116 -21 8 16 -82 61 -150 84 -126 240 -234 386 -268 72 -16 210 -16
280 0 217 51 400 227 466 446 13 42 18 93 18 170 0 97 -4 120 -30 195 -38 109
-88 183 -177 265 -147 137 -345 190 -550 150z"/>
<path d="M780 938 c-66 -34 -93 -79 -88 -148 5 -64 26 -99 79 -129 104 -59
229 16 229 136 0 120 -116 194 -220 141z m140 -46 c59 -44 58 -136 -3 -188
-27 -23 -38 -26 -81 -21 -40 3 -55 11 -78 36 -50 56 -33 151 34 185 39 20 91
15 128 -12z"/>
<path d="M410 526 c0 -4 20 -15 43 -25 88 -38 114 -116 58 -172 -34 -34 -80
-38 -138 -14 -48 20 -50 19 -23 -10 53 -57 144 -54 194 5 69 83 20 205 -88
217 -25 3 -46 3 -46 -1z"/>
</g>
</svg>
